Coordinates
version=1
nRows=13
nColumns=36
inDegrees=yes

Units are S.I. units (second, meters, Newtons, ...)
If the header above contains a line with 'inDegrees', this indicates whether rotational values are in degrees (yes) or radians (no).

endheader
time	pelvis_tilt	pelvis_list	pelvis_rotation	pelvis_tx	pelvis_ty	pelvis_tz	hip_flexion_r	hip_adduction_r	hip_rotation_r	knee_angle_r	knee_angle_r_beta	ankle_angle_r	subtalar_angle_r	mtp_angle_r	hip_flexion_l	hip_adduction_l	hip_rotation_l	knee_angle_l	knee_angle_l_beta	ankle_angle_l	subtalar_angle_l	mtp_angle_l	lumbar_extension	lumbar_bending	lumbar_rotation	arm_flex_r	arm_add_r	arm_rot_r	elbow_flex_r	pro_sup_r	arm_flex_l	arm_add_l	arm_rot_l	elbow_flex_l	pro_sup_l
      0.00000000	      1.40355473	     -2.02269033	      0.31321913	     -1.01810328	      1.30339559	     -0.09341313	     -4.02498525	      1.00077032	     -2.63021666	      4.39105978	      0.07663845	     -2.58784057	    -12.97338610	     -5.53530566	     -4.44050427	     -1.29273655	     -1.01808144	      5.80436064	      0.10130520	      4.49812498	     -7.23704969	     -5.53530566	    -12.35869998	      3.32165361	     -0.79456138	      4.53629260	     -9.83504818	     13.69930763	     31.09098205	     75.05070494	      1.11574661	     -8.14259429	     17.45632850	     31.83319524	     68.42418505
      0.00416670	      1.15558588	     -1.30351768	      0.28809733	     -1.01661328	      1.30403608	     -0.09348223	     -3.85426851	      0.53111510	     -2.77486876	      4.42429644	      0.07721854	      0.08110728	     -9.65297212	     -6.31279956	     -4.72548933	     -0.14455790	     -1.83488159	      5.01626632	      0.08755036	      4.63759562	     -5.26246703	     -6.31279956	    -11.90780444	      2.45368240	     -0.80177285	      3.89382663	     -8.58147121	      8.24832039	     31.85445483	     78.86029418	      0.69373784	     -7.35471004	     14.04278209	     32.04815635	     72.87269022
      0.00833330	      0.75297068	     -0.68146042	     -0.13666273	     -1.01733432	      1.30377157	     -0.09187497	     -3.49985486	     -0.00445830	     -3.88595785	      4.03600053	      0.07044150	      1.05766478	     -8.56062935	     -6.56182010	     -4.66949232	      0.55666063	     -3.25700808	      4.54814569	      0.07938012	      4.99403661	     -3.98389551	     -6.56182010	    -11.66452039	      1.45461971	     -0.52437954	      3.59152000	     -7.62755517	      5.24824566	     32.53788432	     76.59592134	      0.70797318	     -7.48987046	     12.81509074	     32.26840309	     71.86158382
      0.01250000	      1.53906010	     -0.51402306	     -0.21962167	     -1.01824525	      1.30313796	     -0.09175686	     -4.28513062	     -0.24858033	     -4.24631141	      3.89754340	      0.06802497	      1.43531840	     -8.10174178	     -6.61376959	     -5.97411335	      0.85573137	     -3.72903158	      3.61704158	      0.06312928	      4.78415186	     -3.91404491	     -6.61376959	    -12.74008957	      1.07283159	     -0.48102515	      3.58508990	     -7.31676348	      4.40552203	     33.15008617	     76.17623083	      0.93201159	     -7.78494825	     12.49706341	     32.61996566	     71.85659219
      0.01666670	      1.92096689	     -0.42252393	     -0.19517225	     -1.01733229	      1.30435355	     -0.09077049	     -4.79301653	     -0.32911101	     -4.54637542	      3.73014811	      0.06510337	      1.82010985	     -7.42983981	     -6.70321399	     -6.74168142	      1.00400979	     -4.29749012	      2.99178951	      0.05221658	      4.98181446	     -2.91402866	     -6.70321399	    -13.35509555	      0.90686921	     -0.04489551	      2.74329791	     -6.91543231	      1.79736937	     34.87943901	     76.80723719	      1.18810250	     -7.91740598	     12.38574575	     33.30816289	     74.27893006
      0.02083330	      2.22545839	     -0.36817638	     -0.13247410	     -1.01885303	      1.30439063	     -0.09201700	     -5.13039983	     -0.40244921	     -4.48711889	      3.68803069	      0.06436828	      1.92276808	     -7.46588483	     -6.76797020	     -7.17677180	      1.09021463	     -4.32143686	      2.64762655	      0.04620980	      5.00517116	     -2.93860317	     -6.76797020	    -13.78524264	      0.85638531	      0.02917279	      2.65529969	     -7.02414680	      2.00058086	     35.45395823	     76.14363095	      1.29715668	     -8.01647570	     12.47355822	     33.79710057	     73.96882977
      0.02500000	      2.40229480	     -0.35292004	     -0.08470630	     -1.01848144	      1.30412747	     -0.09188695	     -5.36304305	     -0.44817123	     -4.54423036	      3.63364758	      0.06341911	      1.88366540	     -7.54772897	     -6.82546791	     -7.44146903	      1.10996386	     -4.31742870	      2.40723018	      0.04201409	      4.99124172	     -2.77609531	     -6.82546791	    -13.98781648	      0.86531443	      0.03726281	      2.56875454	     -7.22665581	      2.59264327	     36.00340320	     75.86046059	      1.38059119	     -8.12688330	     12.97144827	     34.16873476	     74.20719146
      0.02916670	      2.45471056	     -0.35286823	     -0.07048760	     -1.01941701	      1.30641792	     -0.09196599	     -5.45156797	     -0.46590726	     -4.57492963	      3.55837996	      0.06210545	      1.84317598	     -7.38769790	     -6.93774715	     -7.52143193	      1.11024127	     -4.44258420	      2.22392441	      0.03881480	      4.92802517	     -2.52384580	     -6.93774715	    -14.15391217	      0.93604205	      0.04693198	      2.52244641	     -7.60151014	      3.77619355	     36.44631369	     75.42867719	      1.47100832	     -8.30125468	     13.90836855	     34.44909223	     74.81748126
      0.03333330	      2.42009005	     -0.36366544	     -0.00353976	     -1.02046110	      1.30490912	     -0.09096686	     -5.38375360	     -0.42853919	     -4.65804942	      3.54450470	      0.06186328	      1.67121006	     -7.64874052	     -7.15413656	     -7.41691886	      1.04934600	     -4.38194347	      2.16584139	      0.03780106	      4.70903455	     -2.63196020	     -7.15413656	    -14.23606281	      0.97337166	      0.00186344	      2.48122713	     -7.69070657	      3.43805331	     36.68468653	     81.02020565	      1.45811249	     -8.20606303	     12.34319731	     34.62477693	     85.72952505
      0.03750000	      2.42732612	     -0.39279483	     -0.03476651	     -1.02063568	      1.30432962	     -0.09195711	     -5.36358672	     -0.41166866	     -4.68250837	      3.52323440	      0.06149204	      1.47456270	     -7.85984238	     -7.23257116	     -7.39628935	      1.00621777	     -4.45907911	      2.06803409	      0.03609400	      4.57995009	     -2.30969312	     -7.23257116	    -14.36562592	      1.06109196	      0.02973488	      2.52242266	     -8.01990230	      4.46171037	     36.93604001	     79.90312573	      1.56043087	     -8.34288004	     13.18868083	     34.77492273	     84.69317223
      0.04166670	      2.49267744	     -0.42687124	     -0.00821945	     -1.02091480	      1.30415476	     -0.09140137	     -5.44885313	     -0.34916595	     -4.77404315	      3.43592464	      0.05996820	      1.29665526	     -7.92776300	     -7.27801124	     -7.42663559	      0.92792393	     -4.41958739	      2.05141740	      0.03580399	      4.48468849	     -2.23546057	     -7.27801124	    -14.54047624	      1.15986597	     -0.04160205	      2.51737303	     -8.08784028	      4.57979317	     37.14650977	     78.05653556	      1.59362123	     -8.33139543	     13.27385720	     34.87327751	     82.57533130
      0.04583330	      2.53423790	     -0.44148709	     -0.07870595	     -1.02131030	      1.30520226	     -0.09082466	     -5.50174083	     -0.30740907	     -4.78597345	      3.32740155	      0.05807411	      1.13339527	     -7.99511007	     -7.37017529	     -7.48302674	      0.87959127	     -4.58016785	      1.94475617	      0.03394240	      4.29221346	     -2.06803264	     -7.37017529	    -14.68787445	      1.18968753	      0.03187341	      2.45536601	     -8.27558304	      4.73906381	     37.40656333	     81.48104516	      1.62534994	     -8.39601986	     12.99661430	     35.00056507	     87.54256285
      0.05000000	      2.54322211	     -0.40968420	     -0.02021538	     -1.02229873	      1.30242652	     -0.09150634	     -5.49801934	     -0.32911220	     -4.77967317	      3.30169879	      0.05762551	      1.01331286	     -8.21741358	     -7.40787692	     -7.41941195	      0.90218011	     -4.47129250	      1.95026623	      0.03403857	      4.09906677	     -2.25673832	     -7.40787692	    -14.78581651	      1.23565373	     -0.03003014	      2.44789734	     -8.53366226	      5.64652510	     37.65492817	     78.95445823	      1.70664140	     -8.55196431	     13.83026872	     35.12471177	     84.55555741
